HIERARCHY
ROOT pelvis
{
	OFFSET 0.000000 0.727022 -0.000000
	CHANNELS 6 Xposition Yposition Zposition Xrotation Yrotation Zrotation
	JOINT spine
	{
		OFFSET 0.000000 0.000000 0.000000
		CHANNELS 6 Xposition Yposition Zposition Xrotation Yrotation Zrotation
		JOINT spine.001
		{
			OFFSET 0.000000 0.207059 0.010851
			CHANNELS 3 Xrotation Yrotation Zrotation
			JOINT neck
			{
				OFFSET 0.000000 0.205797 -0.025269
				CHANNELS 6 Xposition Yposition Zposition Xrotation Yrotation Zrotation
				JOINT face
				{
					OFFSET 0.000000 0.159761 -0.002789
					CHANNELS 6 Xposition Yposition Zposition Xrotation Yrotation Zrotation
					End Site
					{
						OFFSET 0.000000 -0.006953 0.017303
					}
				}
			}
			JOINT shoulder.L
			{
				OFFSET 0.000000 0.205797 -0.025269
				CHANNELS 6 Xposition Yposition Zposition Yrotation Xrotation Zrotation
				JOINT upper_arm.L
				{
					OFFSET 0.137806 0.000000 0.000000
					CHANNELS 6 Xposition Yposition Zposition Xrotation Yrotation Zrotation
					JOINT forearm.L
					{
						OFFSET 0.219414 0.000841 -0.000101
						CHANNELS 6 Xposition Yposition Zposition Xrotation Yrotation Zrotation
						End Site
						{
							OFFSET 0.205039 -0.001158 0.003486
						}
					}
				}
			}
			JOINT shoulder.R
			{
				OFFSET 0.000000 0.205797 -0.025269
				CHANNELS 6 Xposition Yposition Zposition Yrotation Xrotation Zrotation
				JOINT upper_arm.R
				{
					OFFSET -0.137806 0.000000 0.000000
					CHANNELS 6 Xposition Yposition Zposition Xrotation Yrotation Zrotation
					JOINT forearm.R
					{
						OFFSET -0.215908 0.000841 -0.000101
						CHANNELS 6 Xposition Yposition Zposition Xrotation Yrotation Zrotation
						End Site
						{
							OFFSET -0.209494 -0.001159 0.003564
						}
					}
				}
			}
		}
	}
	JOINT pelvis.L
	{
		OFFSET 0.000000 0.000000 0.000000
		CHANNELS 6 Xposition Yposition Zposition Yrotation Xrotation Zrotation
		End Site
		{
			OFFSET 0.089911 0.000000 0.000000
		}
	}
	JOINT pelvis.R
	{
		OFFSET 0.000000 0.000000 0.000000
		CHANNELS 6 Xposition Yposition Zposition Yrotation Xrotation Zrotation
		End Site
		{
			OFFSET -0.089911 0.000000 0.000000
		}
	}
	JOINT thigh.L
	{
		OFFSET 0.089911 0.000000 0.000000
		CHANNELS 6 Xposition Yposition Zposition Xrotation Yrotation Zrotation
		JOINT shin.L
		{
			OFFSET 0.019079 -0.364056 0.000000
			CHANNELS 6 Xposition Yposition Zposition Xrotation Yrotation Zrotation
			JOINT foot.L
			{
				OFFSET 0.016153 -0.308217 0.000000
				CHANNELS 6 Xposition Yposition Zposition Xrotation Yrotation Zrotation
				End Site
				{
					OFFSET 0.012549 -0.053728 0.127950
				}
			}
		}
	}
	JOINT thigh.R
	{
		OFFSET -0.089911 0.000000 0.000000
		CHANNELS 6 Xposition Yposition Zposition Xrotation Yrotation Zrotation
		JOINT shin.R
		{
			OFFSET -0.019310 -0.368456 0.000000
			CHANNELS 6 Xposition Yposition Zposition Xrotation Yrotation Zrotation
			JOINT foot.R
			{
				OFFSET -0.015935 -0.304053 0.000000
				CHANNELS 6 Xposition Yposition Zposition Xrotation Yrotation Zrotation
				End Site
				{
					OFFSET -0.012210 -0.052277 0.124494
				}
			}
		}
	}
}
MOTION
Frames: 8
Frame Time: 0.041667
-0.016307 0.000015 0.026427 -0.000000 -3.868049 -0.000000 -0.000000 -0.000000 0.000000 -4.097065 0.130152 -1.473216 10.000916 0.910893 -0.111851 -0.000000 0.205797 -0.025269 16.793589 -2.317776 4.048111 -0.000000 0.159761 -0.002789 -3.548656 0.000002 0.000000 -0.000000 0.205797 -0.025269 0.451542 -0.014505 3.680097 0.137807 -0.000000 -0.000000 -2.946151 -3.918617 -73.565113 0.219414 0.000841 -0.000101 -54.340968 -54.586561 -90.451942 -0.000000 0.205797 -0.025269 0.444875 -0.014080 3.625633 -0.137806 -0.000000 -0.000000 -1.119918 1.466715 73.180716 -0.215908 0.000841 -0.000101 -60.814133 55.798547 96.585247 0.000000 0.000000 0.000000 -0.000029 0.000000 0.084208 0.000000 0.000000 0.000000 0.000004 -0.000000 0.084208 0.089911 0.000132 -0.000000 7.825737 -0.005136 -6.075077 0.019079 -0.364056 0.000000 -3.980694 -0.538456 9.401124 0.016153 -0.308217 0.000000 -1.388762 -2.543726 -0.969976 -0.089911 -0.000132 0.000000 7.209831 0.001900 6.030064 -0.019310 -0.368456 0.000000 -5.165967 0.542665 -5.985620 -0.015935 -0.304053 0.000000 0.980888 6.889185 2.939685 
-0.015401 0.000175 0.026551 -0.000000 -4.013732 -0.000000 -0.000000 -0.000000 0.000000 -4.083983 0.127684 -1.447145 10.001058 1.023108 -0.125643 0.000000 0.205797 -0.025269 16.701057 -2.709924 3.947163 0.000000 0.159761 -0.002789 -3.495578 0.000002 0.000001 -0.000000 0.205797 -0.025269 0.439625 -0.013747 3.582596 0.137807 -0.000000 -0.000000 -2.734166 -3.626500 -73.660626 0.219414 0.000841 -0.000101 -53.917845 -54.317674 -90.274474 -0.000000 0.205797 -0.025269 0.432931 -0.013336 3.528183 -0.137807 0.000000 -0.000000 -1.164771 1.520880 73.414056 -0.215908 0.000841 -0.000101 -60.281460 55.891595 95.861439 -0.000000 0.000000 0.000000 -0.000055 0.000000 0.087475 -0.000000 0.000000 0.000000 0.000000 -0.000000 0.087513 0.089911 0.000137 0.000000 7.886932 -0.013247 -6.192042 0.019079 -0.364056 0.000000 -4.024189 -0.545559 9.435157 0.016153 -0.308217 0.000000 -1.359827 -2.402267 -0.910414 -0.089911 -0.000137 0.000000 7.190150 -0.004083 5.934926 -0.019310 -0.368456 0.000000 -5.154710 0.541352 -5.982710 -0.015935 -0.304053 0.000000 1.045677 7.056245 3.010843 
-0.014532 0.000319 0.026622 0.000000 -4.210174 0.000001 -0.000000 -0.000000 0.000000 -4.072750 0.126915 -1.440064 10.001169 1.047296 -0.128604 0.000000 0.205797 -0.025269 16.641146 -2.925215 3.860107 0.000000 0.159761 -0.002789 -3.444639 -0.000000 -0.000000 0.000000 0.205797 -0.025269 0.426114 -0.012915 3.472520 0.137807 -0.000000 0.000000 -2.462314 -3.247826 -73.874377 0.219414 0.000841 -0.000101 -53.759203 -54.189304 -90.242877 -0.000000 0.205797 -0.025269 0.419436 -0.012516 3.418155 -0.137806 0.000000 0.000000 -1.298183 1.691660 73.715711 -0.215908 0.000841 -0.000101 -59.593844 55.863059 95.107113 -0.000000 0.000000 0.000000 0.000076 -0.000000 0.067344 -0.000000 0.000000 0.000000 0.000000 0.000000 0.067344 0.089911 0.000106 -0.000000 7.958128 -0.021285 -6.305930 0.019079 -0.364056 0.000000 -4.086770 -0.554834 9.456688 0.016153 -0.308217 0.000000 -1.335446 -2.211101 -0.828984 -0.089911 -0.000106 0.000000 7.152510 -0.010366 5.834109 -0.019310 -0.368456 0.000000 -5.130686 0.538455 -5.974459 -0.015935 -0.304053 0.000000 1.108984 7.271186 3.101666 
-0.013793 0.000458 0.026623 0.000000 -4.397976 0.000001 -0.000000 -0.000000 0.000000 -4.073054 0.129416 -1.468345 10.001037 0.988000 -0.121326 0.000000 0.205797 -0.025269 16.686154 -2.992111 3.816516 -0.000000 0.159761 -0.002789 -3.455713 -0.000004 0.000007 -0.000000 0.205798 -0.025269 0.414199 -0.012205 3.375256 0.137807 -0.000000 -0.000000 -2.169314 -2.839537 -74.169400 0.219414 0.000841 -0.000101 -53.962494 -54.255037 -90.410101 0.000000 0.205798 -0.025269 0.407506 -0.011809 3.320840 -0.137806 -0.000000 -0.000000 -1.454366 1.891692 73.996658 -0.215908 0.000841 -0.000101 -58.973151 55.727052 94.558990 0.000000 0.000000 0.000000 -0.000015 0.000000 0.025638 0.000000 0.000000 0.000000 0.000000 -0.000000 0.025638 0.089911 0.000040 0.000000 8.021944 -0.028431 -6.405365 0.019079 -0.364056 0.000000 -4.155439 -0.564568 9.467635 0.016153 -0.308217 0.000000 -1.317480 -2.012198 -0.743817 -0.089911 -0.000040 0.000000 7.112898 -0.014581 5.765360 -0.019310 -0.368456 0.000000 -5.112499 0.538078 -6.008505 -0.015935 -0.304053 0.000000 1.187354 7.495941 3.196637 
-0.013165 0.000591 0.026587 0.000000 -4.539158 0.000001 -0.000000 -0.000000 0.000000 -4.094891 0.134571 -1.523522 10.000768 0.861205 -0.105752 0.000000 0.205797 -0.025269 16.851101 -3.047673 3.797980 -0.000000 0.159760 -0.002789 -3.543671 0.000001 -0.000001 0.000000 0.205798 -0.025269 0.406863 -0.011773 3.315866 0.137807 -0.000000 -0.000000 -1.844050 -2.390163 -74.521592 0.219414 0.000841 -0.000101 -54.421260 -54.456825 -90.716838 0.000000 0.205798 -0.025269 0.400199 -0.011395 3.261495 -0.137806 0.000000 -0.000000 -1.572338 2.044262 74.134942 -0.215908 0.000841 -0.000101 -58.636354 55.543986 94.396964 0.000000 0.000000 0.000000 -0.000035 -0.000000 -0.018726 0.000000 0.000000 0.000000 0.000000 0.000000 -0.018764 0.089911 -0.000029 -0.000000 8.070272 -0.034535 -6.489469 0.019079 -0.364056 0.000000 -4.220134 -0.573834 9.480119 0.016153 -0.308217 0.000000 -1.279279 -1.844285 -0.673846 -0.089911 0.000029 -0.000000 7.086154 -0.016830 5.728089 -0.019310 -0.368456 0.000000 -5.114021 0.541657 -6.084263 -0.015935 -0.304053 0.000000 1.291100 7.701954 3.284021 
-0.012568 0.000681 0.026564 0.000000 -4.626759 0.000001 -0.000000 -0.000000 0.000000 -4.137344 0.140067 -1.579115 10.000478 0.706435 -0.086745 0.000000 0.205797 -0.025269 17.072941 -3.198922 3.771989 -0.000000 0.159761 -0.002789 -3.668677 0.000001 -0.000001 0.000000 0.205797 -0.025269 0.404765 -0.011652 3.298402 0.137807 -0.000000 -0.000000 -1.591176 -2.043787 -74.818739 0.219414 0.000841 -0.000101 -54.765112 -54.589139 -90.969206 -0.000000 0.205797 -0.025269 0.398086 -0.011272 3.244031 -0.137807 -0.000000 -0.000000 -1.640422 2.136759 74.093544 -0.215908 0.000841 -0.000101 -58.596637 55.375666 94.562815 0.000000 0.000000 0.000000 0.000050 0.000000 -0.044858 0.000000 0.000000 0.000000 0.000000 0.000000 -0.044896 0.089911 -0.000070 -0.000000 8.103591 -0.039535 -6.558054 0.019079 -0.364056 0.000000 -4.270905 -0.581392 9.497276 0.016153 -0.308217 0.000000 -1.209011 -1.729354 -0.629634 -0.089911 0.000070 -0.000000 7.075224 -0.019161 5.689919 -0.019310 -0.368456 0.000000 -5.127138 0.546177 -6.153417 -0.015935 -0.304053 0.000000 1.393813 7.866057 3.353688 
-0.011981 0.000692 0.026565 0.000000 -4.666000 0.000001 -0.000000 -0.000000 0.000000 -4.184519 0.144659 -1.623342 10.000378 0.578713 -0.071053 0.000000 0.205797 -0.025269 17.268815 -3.430096 3.764195 -0.000000 0.159761 -0.002789 -3.774875 -0.000001 -0.000003 -0.000000 0.205798 -0.025269 0.407477 -0.011805 3.320675 0.137807 -0.000000 -0.000000 -1.639347 -2.104044 -74.901692 0.219414 0.000841 -0.000101 -54.673680 -54.527681 -90.935943 -0.000000 0.205798 -0.025269 0.400828 -0.011426 3.266255 -0.137807 0.000000 0.000000 -1.663729 2.175293 73.910167 -0.215908 0.000841 -0.000101 -58.674235 55.214535 94.856690 0.000000 0.000000 0.000000 -0.000003 -0.000000 -0.052682 0.000000 0.000000 0.000000 0.000000 0.000000 -0.052682 0.089911 -0.000083 0.000000 8.124570 -0.042706 -6.601265 0.019079 -0.364056 0.000000 -4.305618 -0.586185 9.498812 0.016153 -0.308217 0.000000 -1.130715 -1.667610 -0.609254 -0.089911 0.000083 -0.000000 7.074313 -0.022873 5.629933 -0.019310 -0.368456 0.000000 -5.136209 0.548186 -6.176333 -0.015935 -0.304053 0.000000 1.453432 7.963680 3.394958 
-0.011442 0.000634 0.026550 0.000000 -4.664568 0.000001 -0.000000 -0.000000 0.000000 -4.217506 0.148802 -1.664316 10.000270 0.510099 -0.062634 -0.000000 0.205797 -0.025269 17.399458 -3.659951 3.822226 -0.000000 0.159760 -0.002789 -3.834033 0.000002 -0.000000 0.000000 0.205797 -0.025269 0.414826 -0.012242 3.380742 0.137807 -0.000000 -0.000000 -1.919245 -2.476998 -74.800011 0.219414 0.000841 -0.000101 -54.319559 -54.400076 -90.664471 -0.000000 0.205797 -0.025269 0.408183 -0.011856 3.326311 -0.137806 -0.000000 0.000000 -1.644354 2.160051 73.644022 -0.215908 0.000841 -0.000101 -58.666694 54.993715 95.127419 0.000000 0.000000 0.000000 0.000021 0.000000 -0.062292 0.000000 0.000000 0.000000 0.000000 -0.000000 -0.062330 0.089911 -0.000098 0.000000 8.133485 -0.043412 -6.610497 0.019079 -0.364056 0.000000 -4.330357 -0.588152 9.462363 0.016153 -0.308217 0.000000 -1.076906 -1.640512 -0.601928 -0.089911 0.000098 -0.000000 7.085694 -0.027205 5.560518 -0.019310 -0.368456 0.000000 -5.158248 0.550002 -6.164567 -0.015935 -0.304053 0.000000 1.470490 7.989091 3.405700 
